<svg preserveAspectRatio="none" width="100%" height="100%" overflow="visible" style="display: block;" viewBox="0 0 66 66" fill="none" xmlns="http://www.w3.org/2000/svg">
<g id="SVG">
<g id="Vector">
<path d="M39.1875 26.8125L27.8438 38.1562V43.3125H33L38.6719 37.6406L44.3438 31.9687L39.1875 26.8125Z" fill="var(--fill-0, white)" fill-opacity="0.01"/>
<path d="M39.1875 26.8125L27.8438 38.1562V43.3125H33L38.6719 37.6406L44.3438 31.9687L39.1875 26.8125ZM39.1875 26.8125L41.4563 24.5437C41.7445 24.2475 42.0893 24.012 42.4701 23.8513C42.8509 23.6905 43.2601 23.6076 43.6734 23.6076C44.0868 23.6076 44.496 23.6905 44.8768 23.8513C45.2576 24.012 45.6023 24.2475 45.8906 24.5437L47.1281 25.7812C47.695 26.3596 47.1281 25.7812 48.0125 27.9469C48.0125 27.9469 47.695 29.3006 47.1281 29.8789L44.8594 31.9687" stroke="var(--stroke-0, #8E6000)" stroke-width="2.246" stroke-linecap="round" stroke-linejoin="round"/>
</g>
<path id="Vector_2" d="M24.75 21.6562L26.8125 16.5L28.875 21.6562L34.0312 23.7188L28.875 25.7812L26.8125 30.9375L24.75 25.7812L19.5938 23.7188L24.75 21.6562Z" fill="var(--fill-0, #8E6000)"/>
</g>
</svg>
