<svg preserveAspectRatio="none" width="100%" height="100%" overflow="visible" style="display: block;" viewBox="0 0 16.9182 16.5808" fill="none" xmlns="http://www.w3.org/2000/svg">
<g id="Vector">
<path d="M1.125 11.7058L9.375 3.45581L13.125 7.20581L4.875 15.4558H1.125V11.7058ZM9.375 3.45581L11.025 1.80581C11.2347 1.59036 11.4854 1.41911 11.7623 1.30218C12.0393 1.18525 12.3369 1.125 12.6375 1.125C12.9381 1.125 13.2357 1.18525 13.5127 1.30218C13.7896 1.41911 14.0403 1.59036 14.25 1.80581L15.15 2.70581C15.5623 3.1264 15.7932 3.69187 15.7932 4.28081C15.7932 4.86976 15.5623 5.43522 15.15 5.85581L13.5 7.20581" fill="var(--fill-0, white)" fill-opacity="0.01"/>
<path d="M9.375 3.45581L1.125 11.7058V15.4558H4.875L13.125 7.20581L9.375 3.45581ZM9.375 3.45581L11.025 1.80581C11.2347 1.59036 11.4854 1.41911 11.7623 1.30218C12.0393 1.18525 12.3369 1.125 12.6375 1.125C12.9381 1.125 13.2357 1.18525 13.5127 1.30218C13.7896 1.41911 14.0403 1.59036 14.25 1.80581L15.15 2.70581C15.5623 3.1264 15.7932 3.69187 15.7932 4.28081C15.7932 4.86976 15.5623 5.43522 15.15 5.85581L13.5 7.20581" stroke="var(--stroke-0, #FFD772)" stroke-width="2.25" stroke-linecap="round" stroke-linejoin="round"/>
</g>
</svg>
