<svg preserveAspectRatio="none" width="100%" height="100%" overflow="visible" style="display: block;" viewBox="0 0 1078.98 299.453" fill="none" xmlns="http://www.w3.org/2000/svg">
<g id="Layer_1-2">
<path id="Vector" d="M1048.51 141.398C1049.72 143.116 1049.39 145.395 1047.85 146.727C1048.76 148.866 1049.72 151.776 1050.09 155.176C1050.53 159.384 1049.98 163.416 1048.47 167.237C1048.18 168.008 1047.81 168.745 1047.44 169.481C1048.21 170.007 1048.91 170.673 1049.46 171.444C1050.01 172.251 1050.42 173.092 1050.6 173.969C1051.44 173.899 1052.33 173.899 1053.17 173.899C1057.43 174.004 1061.54 175.056 1065.47 177.054C1068.63 178.667 1071.08 180.63 1072.81 182.243C1074.72 181.366 1077.03 181.962 1078.24 183.68C1079.57 185.574 1079.05 188.133 1077.07 189.395C1075.09 190.657 1072.41 190.167 1071.08 188.273C1070.13 186.906 1070.13 185.153 1070.97 183.856C1069.36 182.383 1067.08 180.595 1064.22 179.123C1059.92 176.949 1055.45 176.002 1050.78 176.318C1050.6 178.527 1049.39 180.63 1047.3 181.962C1043.66 184.276 1038.74 183.365 1036.28 179.894C1033.86 176.423 1034.81 171.725 1038.45 169.376C1040.54 168.044 1043.04 167.763 1045.24 168.429C1047.3 164.432 1048.1 160.12 1047.63 155.492C1047.3 152.407 1046.45 149.707 1045.61 147.709C1043.99 147.954 1042.3 147.323 1041.35 145.956C1040.03 144.062 1040.54 141.503 1042.52 140.241C1044.51 138.979 1047.19 139.469 1048.51 141.363V141.398Z" fill="var(--fill-0, #231F20)"/>
<path id="Vector_2" d="M1037.68 178.982C1035.66 188.834 1037.16 198.581 1041.42 206.96C1044.73 197.915 1043.7 187.537 1037.68 178.982Z" fill="var(--fill-0, #FFF034)"/>
<path id="Vector_3" d="M1040.32 207.486C1038.12 203.104 1036.65 198.476 1035.99 193.673C1035.29 188.729 1035.47 183.715 1036.5 178.737C1036.61 178.281 1036.98 177.895 1037.46 177.825C1037.93 177.72 1038.45 177.93 1038.7 178.316C1040.25 180.49 1041.49 182.839 1042.41 185.293C1043.33 187.677 1043.95 190.131 1044.25 192.656C1044.87 197.564 1044.25 202.648 1042.56 207.346C1042.41 207.802 1041.97 208.117 1041.46 208.117C1041.02 208.117 1040.61 207.942 1040.36 207.591C1040.36 207.556 1040.28 207.486 1040.28 207.451L1040.32 207.486ZM1041.2 203.56C1043 196.337 1042.01 188.869 1038.37 182.313C1037.42 189.57 1038.37 196.793 1041.2 203.56Z" fill="var(--fill-0, #231F20)"/>
<path id="Vector_4" d="M982.829 214.113C991.163 215.69 999.423 215.024 1006.95 212.57C1022.22 207.591 1034.34 195.18 1037.68 178.982C1020.72 175.792 1004.09 181.787 993.476 193.392C988.263 199.107 984.481 206.154 982.829 214.113Z" fill="var(--fill-0, #F4B137)"/>
<path id="Vector_5" d="M981.618 213.902C982.462 209.905 983.82 206.014 985.693 202.403C987.528 198.897 989.805 195.601 992.521 192.656C997.955 186.731 1004.97 182.208 1012.75 179.578C1016.71 178.246 1020.83 177.44 1024.97 177.124C1029.27 176.809 1033.6 177.054 1037.86 177.86C1038.19 177.93 1038.45 178.106 1038.63 178.351C1038.81 178.597 1038.89 178.912 1038.81 179.228C1037.97 183.295 1036.58 187.221 1034.63 190.903C1032.76 194.479 1030.41 197.775 1027.62 200.79C1022.11 206.68 1015.1 211.168 1007.28 213.727C1003.39 214.989 999.313 215.796 995.238 216.076C991.016 216.357 986.721 216.076 982.536 215.305C982.205 215.235 981.948 215.059 981.765 214.814C981.581 214.568 981.508 214.253 981.581 213.937L981.618 213.902ZM994.393 194.163C989.437 199.563 985.95 206.119 984.298 213.201C991.75 214.393 999.423 213.832 1006.58 211.483C1021.52 206.61 1032.79 194.584 1036.25 179.929C1020.75 177.44 1004.82 182.839 994.43 194.163H994.393Z" fill="var(--fill-0, #231F20)"/>
<path id="Vector_6" d="M1011.98 165.063C1018.51 172.005 1027.36 177.054 1037.68 178.982C1031.66 170.428 1022 165.554 1011.98 165.063Z" fill="var(--fill-0, #FFF034)"/>
<path id="Vector_7" d="M1010.88 164.538C1011.1 164.117 1011.54 163.836 1012.05 163.871C1017.27 164.152 1022.4 165.554 1026.92 167.973C1029.23 169.201 1031.4 170.708 1033.34 172.391C1035.36 174.144 1037.16 176.142 1038.67 178.316C1038.96 178.702 1038.96 179.228 1038.67 179.613C1038.37 179.999 1037.9 180.209 1037.42 180.104C1032.24 179.123 1027.32 177.37 1022.77 174.88C1018.4 172.461 1014.44 169.411 1011.06 165.8C1011.02 165.765 1010.99 165.73 1010.95 165.659C1010.73 165.309 1010.66 164.888 1010.88 164.502V164.538ZM1015.17 166.536C1020.64 171.585 1027.32 175.196 1034.67 177.124C1029.71 171.409 1022.85 167.693 1015.17 166.536Z" fill="var(--fill-0, #231F20)"/>
<path id="Vector_8" d="M1037.68 178.982C1028.72 184.732 1023.62 193.953 1023.1 203.524C1023.03 204.787 1023.03 206.049 1023.1 207.311C1023.47 212.675 1025.27 217.969 1028.65 222.773C1033.64 219.582 1037.42 215.305 1039.92 210.501C1040.5 209.38 1041.02 208.187 1041.46 207.03C1044.76 197.985 1043.73 187.607 1037.71 179.052L1037.68 178.982Z" fill="var(--fill-0, white)"/>
<path id="Vector_9" d="M1021.89 207.381C1021.82 206.084 1021.78 204.752 1021.89 203.454C1022.18 198.476 1023.65 193.567 1026.19 189.255C1027.47 187.046 1029.05 184.978 1030.81 183.119C1032.65 181.191 1034.74 179.473 1037.02 178.036C1037.57 177.685 1038.34 177.825 1038.7 178.351C1040.25 180.525 1041.49 182.874 1042.41 185.328C1043.33 187.712 1043.95 190.167 1044.25 192.691C1044.87 197.599 1044.25 202.683 1042.56 207.381C1042.12 208.608 1041.57 209.835 1040.98 210.992C1038.34 216.111 1034.3 220.529 1029.31 223.719C1028.76 224.07 1027.98 223.93 1027.62 223.404C1024.28 218.635 1022.29 213.096 1021.89 207.381ZM1024.31 203.595C1024.24 204.787 1024.24 206.014 1024.31 207.241C1024.64 212.149 1026.26 216.917 1028.98 221.125C1033.16 218.215 1036.54 214.393 1038.78 209.976C1039.33 208.889 1039.84 207.767 1040.25 206.61C1043.44 197.88 1042.38 188.484 1037.31 180.665C1029.53 186.064 1024.79 194.374 1024.28 203.595H1024.31Z" fill="var(--fill-0, #231F20)"/>
<path id="Vector_10" d="M991.861 170.357C995.201 175.126 999.68 178.737 1004.71 181.121C1005.88 181.682 1007.13 182.173 1008.34 182.594C1017.82 185.749 1028.68 184.767 1037.64 179.017C1031.62 170.463 1021.96 165.589 1011.94 165.098C1010.62 165.028 1009.3 165.028 1007.98 165.098C1002.36 165.449 996.78 167.167 991.787 170.393L991.861 170.357Z" fill="var(--fill-0, white)"/>
<path id="Vector_11" d="M991.163 169.376C996.156 166.185 1001.96 164.292 1007.94 163.906C1009.3 163.836 1010.69 163.801 1012.05 163.906C1017.27 164.187 1022.4 165.589 1026.92 168.008C1029.23 169.236 1031.4 170.743 1033.34 172.426C1035.36 174.179 1037.16 176.177 1038.67 178.351C1039.04 178.877 1038.89 179.613 1038.34 179.964C1036.06 181.437 1033.6 182.629 1031.03 183.505C1028.54 184.382 1025.97 184.978 1023.32 185.258C1018.18 185.854 1012.86 185.258 1007.94 183.645C1006.66 183.225 1005.37 182.699 1004.16 182.138C998.799 179.613 994.173 175.757 990.832 170.989C990.465 170.463 990.612 169.726 991.163 169.376ZM1011.91 166.22C1010.66 166.15 1009.37 166.15 1008.09 166.22C1002.95 166.536 997.954 168.079 993.549 170.673C996.596 174.67 1000.6 177.895 1005.22 180.034C1006.36 180.56 1007.54 181.051 1008.75 181.437C1017.89 184.487 1027.73 183.47 1035.91 178.632C1030.26 171.199 1021.56 166.676 1011.91 166.185V166.22Z" fill="var(--fill-0, #231F20)"/>
<path id="Vector_12" d="M1006.32 184.101C1006.51 184.347 1006.77 184.522 1007.1 184.592C1007.17 184.592 1010.99 185.433 1014.55 188.238C1019.25 191.92 1021.27 197.179 1020.61 203.805C1020.53 204.436 1021.05 205.032 1021.71 205.067C1022.37 205.137 1022.99 204.646 1023.03 204.015C1023.43 199.913 1022.92 196.197 1021.41 193.006C1020.2 190.447 1018.4 188.203 1016.02 186.345C1012.02 183.225 1007.79 182.313 1007.61 182.278C1006.95 182.138 1006.29 182.523 1006.14 183.154C1006.07 183.47 1006.14 183.786 1006.32 184.066V184.101Z" fill="var(--fill-0, #231F20)"/>
<path id="Vector_13" d="M998.579 189.08C998.762 189.325 999.019 189.5 999.35 189.57C999.423 189.57 1003.24 190.412 1006.8 193.217C1011.5 196.898 1013.52 202.157 1012.86 208.783C1012.79 209.415 1013.3 210.011 1013.96 210.046C1014.62 210.116 1015.25 209.625 1015.28 208.994C1015.69 204.892 1015.17 201.175 1013.67 197.985C1012.46 195.426 1010.66 193.182 1008.27 191.323C1004.27 188.203 1000.05 187.292 999.864 187.257C999.203 187.116 998.542 187.502 998.395 188.133C998.322 188.449 998.395 188.764 998.579 189.045V189.08Z" fill="var(--fill-0, #231F20)"/>
<path id="Vector_14" d="M1005.33 213.411C1005.55 213.692 1005.88 213.902 1006.29 213.937C1006.95 213.972 1007.54 213.482 1007.57 212.85C1007.76 209.625 1007.32 206.645 1006.29 203.98C1005.41 201.736 1004.05 199.703 1002.32 197.95C999.203 194.83 995.458 193.287 993.513 192.691C992.888 192.48 992.191 192.796 991.971 193.427C991.75 194.023 992.081 194.689 992.742 194.9C996.706 196.197 1005.88 200.474 1005.15 212.71C1005.15 212.991 1005.22 213.236 1005.37 213.411H1005.33Z" fill="var(--fill-0, #231F20)"/>
<path id="Vector_15" d="M997.551 215.164C997.771 215.515 998.212 215.725 998.652 215.69C999.313 215.655 999.827 215.059 999.79 214.428C999.46 210.501 998.101 207.066 995.715 204.191C993.953 202.087 991.714 200.334 989.034 199.002C988.446 198.686 987.712 198.932 987.382 199.493C987.051 200.054 987.308 200.755 987.896 201.07C991.86 203.069 996.706 207.031 997.367 214.639C997.367 214.849 997.441 215.024 997.587 215.2L997.551 215.164Z" fill="var(--fill-0, #231F20)"/>
<path id="Vector_16" d="M848.06 273.435C846.848 273.435 845.82 272.558 845.82 271.366C845.82 270.209 846.738 269.228 847.986 269.228C854.301 269.087 860.652 268.632 866.856 267.895L867.517 267.825C868.729 267.685 869.83 268.491 869.977 269.648C870.124 270.805 869.279 271.857 868.068 271.997L867.407 272.067C861.019 272.839 854.521 273.295 848.097 273.435H848.06ZM885.102 266.984C884.809 265.862 885.543 264.705 886.717 264.459C887.452 264.284 888.223 264.109 888.957 263.933C894.537 262.566 900.081 260.953 905.477 259.13C906.615 258.745 907.9 259.305 908.304 260.392C908.708 261.479 908.121 262.706 906.983 263.092C901.439 264.985 895.749 266.633 890.058 268C889.287 268.176 888.516 268.351 887.782 268.526C887.709 268.526 887.635 268.526 887.525 268.561C886.424 268.702 885.359 268 885.102 266.949V266.984ZM828.015 272.909C821.444 272.418 814.762 271.612 808.154 270.525C806.942 270.314 806.135 269.228 806.355 268.106C806.575 266.949 807.713 266.177 808.888 266.388C815.386 267.439 821.921 268.246 828.345 268.702C829.557 268.807 830.475 269.789 830.365 270.945C830.291 271.962 829.447 272.734 828.456 272.874C827.464 273.014 828.162 272.874 828.015 272.874V272.909ZM922.512 254.678C921.998 253.626 922.438 252.364 923.54 251.873C928.679 249.489 933.782 246.859 938.628 244.019C939.326 243.634 939.987 243.213 940.684 242.792C941.712 242.161 943.07 242.477 943.731 243.458C944.392 244.44 944.062 245.737 943.034 246.368C942.336 246.789 941.639 247.21 940.941 247.595C935.985 250.505 930.772 253.205 925.485 255.659C925.265 255.764 925.045 255.835 924.788 255.87C923.87 255.975 922.952 255.519 922.548 254.713L922.512 254.678ZM788.586 266.458C782.162 264.845 775.737 262.952 769.459 260.813C768.321 260.427 767.734 259.235 768.138 258.113C768.542 257.027 769.79 256.466 770.965 256.851C777.096 258.955 783.41 260.813 789.724 262.391C790.899 262.671 791.597 263.828 791.303 264.95C791.083 265.792 790.312 266.388 789.431 266.493C788.55 266.598 788.88 266.493 788.586 266.423V266.458ZM956.25 234.939C955.479 234.027 955.626 232.695 956.58 231.994C961.683 228.067 966.529 223.825 971.045 219.442C971.889 218.601 973.284 218.601 974.165 219.407C975.047 220.213 975.047 221.546 974.202 222.387C969.576 226.91 964.584 231.257 959.334 235.289C959.003 235.535 958.636 235.675 958.232 235.745C957.498 235.85 956.727 235.57 956.25 234.974V234.939ZM429.323 298.608C425.836 298.994 422.274 299.274 418.787 299.449C417.575 299.52 416.547 298.608 416.474 297.451C416.401 296.294 417.355 295.312 418.567 295.242C421.944 295.067 425.395 294.786 428.809 294.401C431.856 294.05 434.94 293.629 437.987 293.104C439.162 292.893 440.337 293.665 440.557 294.822C440.777 295.978 439.97 297.065 438.758 297.276C436.078 297.732 433.325 298.117 430.608 298.468C430.204 298.503 429.764 298.573 429.36 298.608H429.323ZM455.535 291.386C455.168 290.264 455.829 289.107 457.004 288.756C463.282 286.898 469.413 284.654 475.25 282.095C476.351 281.604 477.673 282.095 478.187 283.111C478.701 284.163 478.187 285.425 477.122 285.916C471.101 288.546 464.787 290.86 458.362 292.753C458.252 292.788 458.105 292.823 457.995 292.823C456.967 292.963 455.939 292.332 455.609 291.351L455.535 291.386ZM398.705 299.204C391.877 298.678 385.195 297.696 378.807 296.259C377.633 295.978 376.898 294.857 377.155 293.735C377.449 292.613 378.624 291.912 379.799 292.157C385.966 293.524 392.428 294.506 399.036 294.997C400.247 295.102 401.165 296.119 401.055 297.276C400.981 298.292 400.137 299.064 399.146 299.204C398.155 299.344 398.852 299.204 398.705 299.204ZM632.414 268.877C631.202 268.912 630.174 268.035 630.101 266.878C630.064 265.722 631.019 264.74 632.193 264.67C638.471 264.424 644.822 263.898 651.027 263.162L651.761 263.057C652.972 262.917 654.074 263.723 654.221 264.88C654.368 266.037 653.523 267.089 652.312 267.229L651.577 267.334C645.263 268.106 638.802 268.596 632.377 268.877H632.414ZM669.419 262.356C669.162 261.234 669.897 260.112 671.108 259.866C677.496 258.534 683.884 256.921 690.088 255.063C691.263 254.713 692.475 255.344 692.842 256.431C693.209 257.552 692.548 258.709 691.41 259.06C685.095 260.953 678.597 262.601 672.063 263.969C671.989 263.969 671.916 263.969 671.879 263.969C670.778 264.109 669.713 263.408 669.456 262.321L669.419 262.356ZM750.957 253.626C748.681 252.644 746.368 251.592 744.128 250.505C740.42 248.752 736.712 246.859 733.151 244.931C732.087 244.37 731.72 243.073 732.307 242.056C732.894 241.039 734.253 240.689 735.317 241.249C738.805 243.143 742.44 244.966 746.111 246.719C748.313 247.771 750.59 248.787 752.829 249.769C753.93 250.26 754.408 251.487 753.93 252.539C753.6 253.24 752.939 253.661 752.205 253.766C751.471 253.871 751.397 253.766 751.03 253.591L750.957 253.626ZM612.406 268.912C605.798 268.667 599.079 268.141 592.471 267.369C591.26 267.229 590.415 266.177 590.562 265.02C590.709 263.863 591.81 263.057 593.022 263.197C599.52 263.933 606.091 264.459 612.589 264.705C613.801 264.74 614.755 265.722 614.719 266.878C614.682 267.93 613.838 268.772 612.81 268.877C611.782 268.982 612.553 268.877 612.442 268.877L612.406 268.912ZM707.343 251.382C706.866 250.295 707.416 249.068 708.518 248.647C714.502 246.263 720.486 243.563 726.286 240.688C727.351 240.163 728.709 240.548 729.26 241.565C729.811 242.582 729.407 243.879 728.342 244.405C722.432 247.35 716.337 250.085 710.243 252.539C710.06 252.609 709.876 252.679 709.656 252.679C708.701 252.784 707.747 252.293 707.343 251.417V251.382ZM491.66 276.064C490.999 275.083 491.293 273.785 492.321 273.154C497.828 269.753 503.077 266.002 507.85 261.935C508.768 261.164 510.163 261.234 510.971 262.11C511.778 262.987 511.705 264.319 510.787 265.09C505.831 269.263 500.434 273.189 494.707 276.695C494.413 276.871 494.12 276.976 493.789 277.011C492.982 277.116 492.137 276.765 491.66 276.064ZM359.607 290.334C357.735 289.598 355.899 288.791 354.1 287.95C349.915 285.986 345.803 283.742 341.802 281.253C340.774 280.622 340.48 279.325 341.178 278.343C341.839 277.362 343.197 277.081 344.225 277.747C348.043 280.131 352.044 282.305 356.046 284.163C357.771 284.97 359.534 285.741 361.333 286.477C362.471 286.933 362.985 288.16 362.507 289.247C362.177 289.948 361.516 290.439 360.745 290.509C359.974 290.579 359.974 290.509 359.607 290.369V290.334ZM572.72 264.284C566.222 263.022 559.687 261.479 553.299 259.691C552.125 259.376 551.464 258.184 551.794 257.097C552.125 255.975 553.373 255.344 554.511 255.659C560.752 257.412 567.177 258.92 573.564 260.182C574.739 260.427 575.51 261.514 575.29 262.671C575.106 263.583 574.335 264.214 573.418 264.319C572.5 264.424 572.94 264.319 572.683 264.319L572.72 264.284ZM742.55 234.132C741.889 233.151 742.183 231.853 743.21 231.222C748.681 227.856 754.077 224.21 759.254 220.424C760.208 219.722 761.603 219.898 762.337 220.809C763.072 221.721 762.888 223.053 761.934 223.754C756.684 227.646 751.177 231.327 745.597 234.763C745.303 234.939 745.009 235.044 744.679 235.079C743.871 235.184 743.027 234.833 742.55 234.132ZM716.154 234.763C711.455 231.643 706.866 228.312 702.534 224.911C701.763 224.315 701.028 223.719 700.294 223.123C699.376 222.387 699.266 221.055 700.037 220.143C700.808 219.267 702.203 219.162 703.158 219.898C703.892 220.494 704.626 221.09 705.36 221.651C709.619 224.982 714.098 228.242 718.687 231.292C719.678 231.959 719.935 233.256 719.238 234.202C718.87 234.728 718.283 235.009 717.696 235.079C717.108 235.149 716.631 235.044 716.154 234.728V234.763ZM534.356 253.626C531.382 252.539 528.445 251.382 525.509 250.19C525.252 250.505 524.958 250.856 524.701 251.172C523.93 252.083 522.535 252.223 521.617 251.487C520.663 250.751 520.516 249.419 521.287 248.542C521.287 248.542 521.36 248.472 521.36 248.437C519.561 247.665 517.762 246.859 516 246.053C514.899 245.562 514.458 244.3 514.972 243.248C515.486 242.196 516.808 241.775 517.909 242.266C519.965 243.213 522.021 244.124 524.113 245.036C527.05 241.249 529.73 237.288 532.117 233.186C532.704 232.169 534.062 231.818 535.127 232.379C536.192 232.94 536.559 234.237 535.971 235.254C533.659 239.251 531.089 243.108 528.262 246.789C530.795 247.806 533.365 248.822 535.935 249.734C537.073 250.155 537.623 251.382 537.22 252.434C536.926 253.17 536.228 253.661 535.421 253.766C534.613 253.871 534.723 253.766 534.356 253.626ZM325.869 269.473C321.096 265.371 316.397 260.743 311.882 255.729C311.074 254.853 311.184 253.521 312.102 252.749C313.02 251.978 314.415 252.083 315.222 252.96C319.628 257.833 324.217 262.356 328.842 266.353C329.76 267.124 329.834 268.456 328.989 269.333C328.622 269.718 328.145 269.964 327.631 269.999C327.117 270.034 326.383 269.894 325.869 269.473ZM774.122 211.308C773.314 210.467 773.351 209.134 774.232 208.328C779.041 204.086 783.704 199.633 788.072 195.04C788.88 194.164 790.275 194.129 791.193 194.9C792.111 195.671 792.148 197.003 791.34 197.88C786.861 202.578 782.125 207.136 777.242 211.448C776.875 211.764 776.471 211.939 776.031 211.974C775.333 212.044 774.636 211.834 774.122 211.308ZM498.378 236.937C492.394 233.466 486.851 229.785 481.895 225.963C480.94 225.227 480.793 223.895 481.564 223.018C482.335 222.107 483.73 221.966 484.648 222.703C489.457 226.419 494.854 229.995 500.655 233.361C501.682 233.957 502.013 235.254 501.389 236.236C501.022 236.797 500.434 237.147 499.773 237.218C499.113 237.288 498.782 237.218 498.342 236.937H498.378ZM685.72 209.976C681.057 205.278 676.688 200.369 672.76 195.356C672.026 194.444 672.21 193.112 673.201 192.411C674.192 191.709 675.55 191.885 676.285 192.831C680.139 197.705 684.398 202.508 688.913 207.066C689.758 207.907 689.721 209.239 688.84 210.046C688.473 210.361 688.032 210.537 687.592 210.607C686.931 210.677 686.234 210.467 685.72 209.976ZM541.405 218.881C540.267 218.495 539.643 217.303 540.046 216.216C542.176 210.326 543.754 204.261 544.709 198.231C544.892 197.074 546.03 196.302 547.205 196.478C548.417 196.653 549.224 197.705 549.041 198.862C548.05 205.137 546.434 211.448 544.195 217.584C543.901 218.355 543.204 218.881 542.396 218.986C541.588 219.091 541.735 218.986 541.405 218.881ZM801.069 183.575C800.114 182.874 799.894 181.542 800.628 180.63C804.593 175.652 808.337 170.463 811.752 165.204C812.412 164.222 813.771 163.907 814.799 164.538C815.827 165.169 816.157 166.466 815.496 167.448C812.009 172.812 808.154 178.106 804.116 183.19C803.748 183.645 803.198 183.926 802.647 183.996C802.096 184.066 801.509 183.926 801.032 183.575H801.069ZM299.583 240.583C295.949 235.675 292.314 230.311 288.716 224.561C288.092 223.579 288.423 222.282 289.451 221.686C290.478 221.09 291.837 221.405 292.461 222.387C296.022 228.032 299.62 233.326 303.181 238.129C303.878 239.076 303.658 240.408 302.667 241.074C302.373 241.285 302.006 241.39 301.676 241.425C300.905 241.53 300.097 241.214 299.583 240.548V240.583ZM467.283 212.675C462.621 207.592 458.729 202.263 455.682 196.793C455.095 195.776 455.536 194.479 456.6 193.953C457.665 193.392 459.023 193.813 459.574 194.83C462.474 200.019 466.182 205.102 470.587 209.941C471.395 210.817 471.285 212.149 470.367 212.921C470.037 213.201 469.596 213.377 469.192 213.412C468.495 213.482 467.761 213.271 467.247 212.71L467.283 212.675ZM661.71 179.298C658.369 173.688 655.432 167.868 652.972 162.013C652.532 160.926 653.083 159.699 654.184 159.279C655.322 158.858 656.607 159.384 657.048 160.436C659.434 166.15 662.297 171.795 665.528 177.229C666.115 178.246 665.748 179.508 664.684 180.104C664.427 180.245 664.133 180.315 663.876 180.35C663.032 180.455 662.15 180.069 661.673 179.298H661.71ZM822.361 151.706C821.26 151.18 820.82 149.918 821.37 148.866C823.059 145.605 824.711 142.274 826.179 138.979C827.281 136.595 828.309 134.14 829.263 131.756C829.704 130.669 830.952 130.109 832.09 130.529C833.228 130.95 833.816 132.142 833.375 133.229C832.384 135.683 831.356 138.172 830.218 140.627C828.676 144.027 827.024 147.428 825.298 150.724C824.968 151.39 824.307 151.776 823.61 151.881C822.912 151.986 822.765 151.881 822.361 151.671V151.706ZM548.013 181.787C546.801 181.857 545.774 180.946 545.7 179.789C545.59 177.615 545.37 175.441 545.113 173.303C545.003 172.461 544.856 171.585 544.746 170.743C544.268 167.728 543.497 164.678 542.543 161.698C542.176 160.576 542.837 159.419 543.975 159.068C545.149 158.718 546.361 159.349 546.728 160.436C547.756 163.626 548.564 166.887 549.078 170.112C549.224 170.989 549.371 171.9 549.481 172.777C549.775 175.021 549.995 177.3 550.106 179.579C550.179 180.7 549.298 181.647 548.197 181.787C547.095 181.928 548.086 181.787 548.013 181.787ZM36.2848 242.442C31.1451 238.304 26.4093 233.641 22.1874 228.593C21.4164 227.681 21.5633 226.349 22.5178 225.648C23.4723 224.911 24.8674 225.052 25.6016 225.963C29.6399 230.802 34.1922 235.254 39.1116 239.216C40.0294 239.952 40.1762 241.285 39.3686 242.196C39.0015 242.617 38.4875 242.862 37.9735 242.932C37.4596 243.002 36.762 242.862 36.2848 242.442ZM278.877 208.012C277.703 205.909 276.454 203.665 275.206 201.351C273.591 198.371 271.902 195.25 269.773 191.148C269.222 190.097 269.663 188.834 270.764 188.309C271.865 187.783 273.187 188.203 273.738 189.255C275.904 193.357 277.556 196.478 279.171 199.423C280.419 201.702 281.631 203.91 282.806 206.014C283.393 207.031 282.989 208.328 281.888 208.854C281.631 208.994 281.374 209.064 281.117 209.099C280.236 209.204 279.355 208.784 278.914 208.012H278.877ZM448.707 178.457C448.487 177.405 448.34 176.318 448.193 175.231C447.496 169.902 447.569 164.397 448.487 158.893C448.67 157.736 449.808 156.965 450.983 157.14C452.195 157.315 453.002 158.402 452.819 159.524C452.011 164.643 451.901 169.727 452.562 174.705C453.223 179.684 452.856 176.704 453.039 177.685C453.259 178.842 452.488 179.929 451.277 180.139C451.24 180.139 451.203 180.139 451.13 180.139C449.992 180.28 448.891 179.543 448.707 178.422V178.457ZM646.805 143.712C645.52 138.628 644.492 133.439 643.831 128.285C643.684 127.128 643.537 125.936 643.427 124.744C643.317 123.587 644.198 122.571 645.41 122.43C646.621 122.325 647.686 123.167 647.833 124.324C647.943 125.446 648.09 126.602 648.237 127.724C648.897 132.703 649.852 137.752 651.137 142.66C651.431 143.782 650.696 144.939 649.522 145.219C649.448 145.219 649.338 145.219 649.265 145.255C648.163 145.395 647.135 144.729 646.842 143.677L646.805 143.712ZM836.716 116.47C835.541 116.19 834.807 115.068 835.101 113.911C836.716 107.67 837.78 101.499 838.368 95.5742C838.478 94.4172 839.543 93.5758 840.754 93.6809C841.966 93.7861 842.847 94.8029 842.737 95.9599C842.149 102.095 841.011 108.476 839.359 114.927C839.139 115.804 838.368 116.4 837.487 116.505C836.606 116.61 836.973 116.505 836.679 116.47H836.716ZM11.1004 212.465C7.94313 206.68 5.41001 200.65 3.57441 194.514C3.244 193.392 3.90482 192.235 5.0796 191.92C6.25438 191.604 7.46588 192.235 7.79629 193.357C9.55846 199.212 11.9815 204.962 14.9918 210.502C15.5425 211.518 15.1387 212.816 14.074 213.342C13.8171 213.447 13.5968 213.552 13.3398 213.552C12.4587 213.657 11.5409 213.236 11.1004 212.43V212.465ZM534.393 145.044C530.832 139.68 526.647 135.017 521.947 131.16C521.03 130.389 520.919 129.057 521.727 128.18C522.535 127.304 523.93 127.199 524.848 127.97C529.84 132.072 534.319 137.05 538.101 142.765C538.762 143.747 538.468 145.044 537.44 145.675C537.146 145.851 536.853 145.956 536.522 145.991C535.714 146.096 534.87 145.745 534.393 145.044ZM260.852 174.249C257.328 167.658 254.427 162.329 251.674 157.526C251.086 156.509 251.49 155.212 252.555 154.686C253.62 154.125 254.978 154.51 255.529 155.527C258.282 160.366 261.219 165.73 264.743 172.356C265.294 173.408 264.853 174.67 263.789 175.196C263.569 175.301 263.312 175.371 263.055 175.406C262.174 175.512 261.256 175.091 260.815 174.284L260.852 174.249ZM455.756 143.151C454.691 142.625 454.251 141.328 454.838 140.311C458.215 134.14 462.547 128.987 467.687 124.99C468.642 124.253 470 124.394 470.771 125.305C471.542 126.217 471.395 127.514 470.441 128.25C465.741 131.897 461.813 136.63 458.693 142.274C458.362 142.906 457.702 143.291 457.004 143.396C456.306 143.502 456.123 143.396 455.719 143.186L455.756 143.151ZM645.006 107.775C643.794 107.705 642.84 106.723 642.913 105.566C643.134 100.938 643.648 96.3105 644.419 91.7877C644.712 90.0347 645.079 88.2115 645.446 86.4585C645.703 85.3366 646.878 84.6003 648.053 84.8458C649.228 85.0912 649.999 86.2131 649.742 87.335C649.375 89.0179 649.044 90.7359 648.751 92.4538C648.016 96.8013 647.539 101.289 647.319 105.777C647.282 106.829 646.438 107.635 645.41 107.775C644.382 107.915 645.153 107.775 645.043 107.775H645.006ZM505.684 122.15C500.214 120.432 494.634 119.871 489.09 120.537C488.466 120.607 487.879 120.712 487.255 120.818H487.181C485.97 121.028 484.832 120.257 484.648 119.135C484.428 117.978 485.235 116.891 486.447 116.716H486.52C487.181 116.575 487.879 116.505 488.576 116.4C494.781 115.664 500.985 116.26 507.079 118.188C508.217 118.539 508.878 119.731 508.474 120.853C508.18 121.659 507.483 122.185 506.639 122.29C505.794 122.395 505.978 122.29 505.684 122.185V122.15ZM840.754 78.9907C839.543 79.0959 838.478 78.2544 838.331 77.0974C838.258 76.2911 838.148 75.4847 838.037 74.6783C837.34 69.279 836.092 64.02 834.366 59.0765C833.962 57.9896 834.587 56.7976 835.761 56.4119C836.899 56.0613 838.148 56.6223 838.551 57.7442C840.387 62.9682 841.672 68.4726 842.443 74.1524C843.214 79.8322 842.663 75.8353 842.737 76.6767C842.847 77.7987 842.002 78.8154 840.828 78.9556C839.653 79.0959 840.791 78.9556 840.754 78.9556V78.9907ZM2.47305 177.44C1.26156 177.51 0.233622 176.633 0.160198 175.476C-0.133498 170.849 -0.0233621 166.221 0.490605 161.663C0.710877 159.84 0.967861 157.981 1.26156 156.158C1.44512 155.001 2.58319 154.23 3.79468 154.405C5.00618 154.581 5.81384 155.667 5.63028 156.824C5.33659 158.577 5.0796 160.366 4.85933 162.119C4.38207 166.431 4.27194 170.813 4.52892 175.231C4.60235 176.353 3.75797 177.3 2.6199 177.44C1.48183 177.58 2.50976 177.44 2.47305 177.44ZM241.835 141.223C238.164 135.543 234.603 130.459 230.895 125.656C230.161 124.709 230.381 123.412 231.372 122.711C232.363 122.01 233.722 122.22 234.456 123.167C238.201 128.075 241.872 133.264 245.58 139.014C246.204 139.996 245.91 141.293 244.845 141.924C244.552 142.099 244.258 142.169 243.964 142.204C243.12 142.309 242.276 141.959 241.798 141.223H241.835ZM652.569 70.7866C651.431 70.3659 650.88 69.1388 651.357 68.0519C653.854 62.1267 656.937 56.3418 660.498 50.8724C661.123 49.8907 662.481 49.5752 663.546 50.2063C664.573 50.8023 664.904 52.0995 664.243 53.1163C660.829 58.3753 657.855 63.9499 655.469 69.6647C655.175 70.4009 654.478 70.8567 653.707 70.9619C652.936 71.0671 652.972 70.9619 652.605 70.8217L652.569 70.7866ZM826.033 42.5281C822.582 37.4443 818.47 32.6761 813.734 28.3637C812.853 27.5573 812.816 26.2251 813.661 25.3836C814.505 24.5422 815.9 24.5071 816.781 25.3135C821.737 29.8713 826.106 34.8849 829.741 40.2141C830.401 41.1958 830.108 42.493 829.08 43.1241C828.786 43.2994 828.492 43.4046 828.162 43.4396C827.354 43.5448 826.51 43.1942 826.033 42.493V42.5281ZM7.64944 140.136C6.51137 139.75 5.92398 138.558 6.32781 137.436C8.56724 131.441 11.3941 125.551 14.7348 119.906C15.3222 118.889 16.6806 118.539 17.7452 119.1C18.8099 119.661 19.177 120.958 18.5896 121.975C15.3957 127.374 12.679 133.054 10.513 138.839C10.2193 139.61 9.52175 140.136 8.71409 140.206C7.90642 140.276 8.05327 140.206 7.68615 140.101L7.64944 140.136ZM218.523 111.176C216.32 108.897 214.044 106.653 211.805 104.585C209.455 102.411 206.995 100.307 204.462 98.3089C203.508 97.5726 203.398 96.2403 204.169 95.3638C204.94 94.4873 206.335 94.3471 207.252 95.0833C209.859 97.1519 212.429 99.3256 214.852 101.569C217.201 103.708 219.514 106.022 221.79 108.371C222.598 109.213 222.561 110.545 221.643 111.351C221.276 111.667 220.873 111.842 220.432 111.877C219.734 111.947 219.037 111.737 218.523 111.211V111.176ZM672.724 38.3559C671.806 37.5846 671.732 36.2523 672.54 35.3758C677.019 30.5375 681.938 26.0498 687.151 22.0879C688.106 21.3517 689.501 21.527 690.235 22.4035C691.006 23.3151 690.823 24.6473 689.905 25.3485C684.875 29.1701 680.176 33.4825 675.844 38.1455C675.477 38.5312 675 38.7766 674.486 38.8467C673.972 38.9169 673.237 38.7416 672.76 38.3208L672.724 38.3559ZM798.425 17.1094C792.918 13.8839 787.044 11.2193 780.987 9.15072C779.849 8.76506 779.225 7.57301 779.665 6.45108C780.069 5.36422 781.317 4.80325 782.492 5.18891C788.843 7.36265 795.011 10.1675 800.775 13.5333C801.803 14.1293 802.133 15.4265 801.509 16.4432C801.142 17.0042 800.555 17.3548 799.894 17.4249C799.233 17.4951 798.902 17.4249 798.462 17.1445L798.425 17.1094ZM26.4093 106.969C25.4547 106.233 25.3079 104.9 26.0788 104.024C30.3374 99.0101 35.0733 94.3471 40.1028 90.1399C41.0206 89.3685 42.4157 89.4737 43.2233 90.3502C44.031 91.2267 43.9209 92.559 43.0031 93.3303C38.1571 97.3623 33.6415 101.85 29.5298 106.688C29.1627 107.109 28.6487 107.389 28.098 107.46C27.5473 107.53 26.9232 107.389 26.446 107.004L26.4093 106.969ZM188.566 87.4753C183.059 84.2497 177.222 81.3748 171.275 78.8855C170.173 78.4297 169.659 77.1676 170.137 76.1158C170.614 75.064 171.936 74.5731 173.037 75.0289C179.204 77.5883 185.189 80.5684 190.879 83.8991C191.907 84.4952 192.237 85.7924 191.613 86.7741C191.246 87.335 190.659 87.6856 189.998 87.7558C189.337 87.8259 189.007 87.7558 188.566 87.4753ZM703.084 14.3046C702.497 13.2878 702.901 11.9906 704.002 11.4647C709.986 8.41446 716.301 5.92518 722.688 4.06699C723.863 3.71638 725.075 4.34747 725.442 5.4694C725.809 6.59132 725.148 7.74831 723.973 8.09891C717.843 9.88699 711.858 12.2711 706.095 15.1811C705.838 15.3213 705.581 15.3914 705.324 15.4265C704.443 15.5317 703.562 15.111 703.121 14.3396L703.084 14.3046ZM762.227 4.83831C758.593 4.38253 754.922 4.17217 751.324 4.17217C748.534 4.17217 745.707 4.31241 742.917 4.55783C741.705 4.66301 740.641 3.82157 740.53 2.66458C740.42 1.50759 741.301 0.490843 742.513 0.385663C745.413 0.140241 748.387 0 751.324 0C755.105 0 758.96 0.245422 762.778 0.701205C763.989 0.841446 764.834 1.89325 764.687 3.05024C764.54 4.03193 763.769 4.76819 762.778 4.87337C761.787 4.97855 762.411 4.87337 762.227 4.87337V4.83831ZM152.882 72.6448C146.604 70.9619 140.18 69.7348 133.792 68.9284C132.58 68.7882 131.736 67.7364 131.883 66.5794C132.03 65.4224 133.131 64.616 134.342 64.7562C140.951 65.5626 147.559 66.8599 154.057 68.6129C155.232 68.9284 155.929 70.0854 155.599 71.2073C155.342 72.0488 154.607 72.6448 153.763 72.7149C152.919 72.785 153.176 72.7149 152.882 72.6448ZM55.6687 81.6903C55.0446 80.7087 55.375 79.4114 56.4397 78.8154C60.0374 76.7819 63.782 74.9237 67.5634 73.3109C69.8762 72.3293 72.2992 71.4177 74.7222 70.5762C75.8603 70.1906 77.1452 70.7515 77.549 71.8384C77.9529 72.9253 77.3655 74.1524 76.2274 74.5381C73.9145 75.3444 71.6017 76.2209 69.3623 77.1676C65.7278 78.7102 62.1667 80.4632 58.7158 82.4266C58.4588 82.5668 58.1651 82.672 57.8714 82.7071C57.027 82.8123 56.146 82.4266 55.7054 81.6903H55.6687ZM114.334 67.8766C109.966 67.9467 105.597 68.2623 101.302 68.7531C99.2091 68.9985 97.0798 69.3141 94.9872 69.6647C93.7757 69.875 92.6377 69.1037 92.4174 67.9818C92.1971 66.8248 93.0048 65.7379 94.1796 65.5276C96.3456 65.1419 98.5483 64.8264 100.714 64.5809C105.12 64.055 109.672 63.7395 114.188 63.6694C115.399 63.6694 116.427 64.5809 116.427 65.7379C116.427 66.8248 115.619 67.7364 114.518 67.8766C113.417 68.0168 114.371 67.8766 114.298 67.8766H114.334Z" fill="var(--fill-0, #231F20)"/>
</g>
</svg>
