<svg preserveAspectRatio="none" width="100%" height="100%" overflow="visible" style="display: block;" viewBox="0 0 17.25 17.25" fill="none" xmlns="http://www.w3.org/2000/svg">
<g id="Vector">
<path d="M8.625 1.125C7.14164 1.125 5.6916 1.56487 4.45823 2.38898C3.22486 3.21309 2.26356 4.38443 1.69591 5.75487C1.12825 7.12532 0.979725 8.63332 1.26911 10.0882C1.5585 11.543 2.27281 12.8794 3.3217 13.9283C4.3706 14.9772 5.70697 15.6915 7.16183 15.9809C8.61669 16.2703 10.1247 16.1218 11.4951 15.5541C12.8656 14.9864 14.0369 14.0251 14.861 12.7918C15.6851 11.5584 16.125 10.1084 16.125 8.625" fill="var(--fill-0, white)" fill-opacity="0.01"/>
<path d="M8.625 1.125C7.14164 1.125 5.6916 1.56487 4.45823 2.38898C3.22486 3.21309 2.26356 4.38443 1.69591 5.75487C1.12825 7.12532 0.979725 8.63332 1.26911 10.0882C1.5585 11.543 2.27281 12.8794 3.3217 13.9283C4.3706 14.9772 5.70697 15.6915 7.16183 15.9809C8.61669 16.2703 10.1247 16.1218 11.4951 15.5541C12.8656 14.9864 14.0369 14.0251 14.861 12.7918C15.6851 11.5584 16.125 10.1084 16.125 8.625" stroke="var(--stroke-0, #8E6000)" stroke-width="2.25" stroke-linecap="round"/>
</g>
</svg>
